<?xml version="1.0" encoding="UTF-8"?>
<svg preserveAspectRatio="xMidYMid slice" width="34px" height="34px" xmlns="http://www.w3.org/2000/svg" id="Layer_1" data-name="Layer 1" viewBox="0 0 25.6 25.6">
  <defs>
    <style>
      .cls-1 {
        fill: #0000e4;
      }
    </style>
  </defs>
  <path class="cls-1" d="m22.75,0H2.84C1.27,0,0,1.27,0,2.84v19.91c0,1.57,1.27,2.84,2.84,2.84h19.91c1.57,0,2.84-1.27,2.84-2.84V2.84c0-1.57-1.27-2.84-2.84-2.84Zm-14.22,19.91h-3.59v-9.95h3.59v9.95Zm-1.86-11.78c-1.1,0-1.83-.73-1.83-1.71s.73-1.71,1.95-1.71c1.1,0,1.83.73,1.83,1.71s-.73,1.71-1.95,1.71Zm14.66,11.78h-3.47v-5.44c0-1.5-.93-1.85-1.27-1.85s-1.5.23-1.5,1.85v5.44h-3.59v-9.95h3.59v1.39c.46-.81,1.39-1.39,3.12-1.39s3.13,1.39,3.13,4.51v5.44Z"></path>
</svg>
