<?xml version="1.0" encoding="UTF-8"?>
<svg preserveAspectRatio="xMidYMid slice" width="284px" height="380px" xmlns="http://www.w3.org/2000/svg" id="Laag_2" data-name="Laag 2" viewBox="0 0 391.78 522.37">
  <defs>
    <style>
      .cls-1 {
        fill: #0027e6;
      }
    </style>
  </defs>
  <g id="location">
    <path id="Shape-2" class="cls-1" d="m195.86,522.37c-2.77,0-5.44-1.05-7.46-2.95C180.74,512.17,0,340.38,0,195.89,0,87.7,87.7,0,195.89,0s195.89,87.7,195.89,195.89c0,144.3-180.74,316.27-188.42,323.53-2.03,1.91-4.72,2.96-7.5,2.95Zm0-435.34c-60.12.02-108.85,48.77-108.83,108.89.02,60.12,48.77,108.85,108.89,108.83,60.11-.02,108.83-48.75,108.83-108.86-.07-60.11-48.79-108.81-108.89-108.86Z"></path>
  </g>
</svg>
