<?xml version="1.0" encoding="UTF-8"?>
<svg preserveAspectRatio="xMidYMid slice" xmlns="http://www.w3.org/2000/svg" width="46px" height="68px" viewBox="0 0 720 1059" fill="none">
  <path d="M50.7711 78.4767L49.1479 69.7816C47.6334 72.3915 45.2516 74.5646 42.4375 76.3036C38.8648 78.4767 34.5362 80 29.6638 80C22.1948 80 15.4845 77.9361 10.071 72.6099C2.27305 64.9986 0 53.8029 0 40C0 27.7177 2.49057 15.7603 10.3919 7.93339C15.9113 2.50068 22.3009 0 29.9847 0C38.6445 0 45.4637 3.04395 50.5536 8.80426C54.1263 12.8256 56.3993 17.4993 56.7229 23.6964H46.6546C46.4371 19.8908 45.0314 16.6312 42.2173 13.8056C39.1856 10.7617 35.3981 9.13186 29.9847 9.13186C24.5712 9.13186 20.7837 10.6525 17.1022 14.4581C10.8242 20.9801 9.95682 31.9574 9.95682 40C9.95682 48.0426 10.2831 59.1291 16.6672 65.6511C20.5635 69.6724 24.0301 70.8681 29.6584 70.8681C35.2866 70.8681 38.9681 69.2383 42.432 65.7603C47.5192 60.7589 48.6014 53.044 48.6014 45.9787H28.7938V36.9588H57.4815V78.4794H50.7711V78.4767Z" fill="white"></path>
  <line x1="71.4814" y1="39" x2="648.518" y2="39" stroke="white" stroke-width="2"></line>
  <path d="M662.519 80V0H672.813V70.6363H720V80H662.519Z" fill="white"></path>
  <line x1="1.5" y1="-1.5" x2="1046.62" y2="-1.5" transform="matrix(0.556554 -0.830811 0.556554 0.830811 71.6646 970)" stroke="white" stroke-width="3" stroke-linecap="square"></line>
  <line x1="1.5" y1="-1.5" x2="1058.79" y2="-1.5" transform="matrix(-0.556415 -0.830904 0.556415 -0.830904 654.961 970)" stroke="white" stroke-width="3" stroke-linecap="square"></line>
  <path d="M28.6826 1059C9.48439 1059 0 1046.59 0 1028.97V979H10.2948V1029.08C10.2948 1041.05 15.268 1049.69 28.7988 1049.69C42.3297 1049.69 47.1866 1040.94 47.1866 1029.08V979H57.4815V1028.97C57.4815 1046.7 47.9971 1059 28.6826 1059Z" fill="white"></path>
  <line x1="71.4814" y1="1018" x2="648.518" y2="1018" stroke="white" stroke-width="2"></line>
  <path d="M662.519 1059V979H720V988.253H672.813V1012.62H709.243V1022.1H672.813V1049.75H720V1059H662.519Z" fill="white"></path>
</svg>
