<?xml version="1.0" encoding="UTF-8"?>
<svg xmlns="http://www.w3.org/2000/svg" id="Layer_1" data-name="Layer 1" viewBox="0 0 25.6 25.6">
  <defs>
    <style>
      .cls-1 {
        fill: #0000e4;
      }
    </style>
  </defs>
  <path class="cls-1" d="m7.11,0C3.18,0,0,3.18,0,7.11v11.38c0,3.93,3.18,7.11,7.11,7.11h11.38c3.93,0,7.11-3.18,7.11-7.11V7.11c0-3.93-3.18-7.11-7.11-7.11H7.11Zm14.22,2.84c.78,0,1.42.64,1.42,1.42s-.64,1.42-1.42,1.42-1.42-.64-1.42-1.42.64-1.42,1.42-1.42Zm-8.53,2.84c3.93,0,7.11,3.18,7.11,7.11s-3.18,7.11-7.11,7.11-7.11-3.18-7.11-7.11,3.18-7.11,7.11-7.11Zm0,2.84c-2.36,0-4.27,1.91-4.27,4.27s1.91,4.27,4.27,4.27,4.27-1.91,4.27-4.27-1.91-4.27-4.27-4.27Z"></path>
</svg>
